<mxfile host="app.diagrams.net" modified="2023-02-10T04:56:15.747Z" agent="5.0 (Windows NT 10.0; Win64; x64) AppleWebKit/537.36 (KHTML, like Gecko) Chrome/108.0.0.0 Safari/537.36 OPR/94.0.0.0" etag="KQ2hWxTdWZ1VeELqB7KU" version="20.8.18" type="github">
  <diagram name="Page-1" id="G8_nSNUt-1ZGY6ppFf0r">
    <mxGraphModel dx="1187" dy="693" grid="1" gridSize="10" guides="1" tooltips="1" connect="1" arrows="1" fold="1" page="1" pageScale="1" pageWidth="827" pageHeight="1169" math="0" shadow="0">
      <root>
        <mxCell id="0" />
        <mxCell id="1" parent="0" />
        <mxCell id="rgjp0Nk6T2QiC0H_okUy-1" value="&lt;u&gt;nom fraternité&lt;/u&gt;" style="rounded=0;whiteSpace=wrap;html=1;" vertex="1" parent="1">
          <mxGeometry x="60" y="170" width="120" height="30" as="geometry" />
        </mxCell>
        <mxCell id="rgjp0Nk6T2QiC0H_okUy-2" value="cotisation" style="rounded=0;whiteSpace=wrap;html=1;" vertex="1" parent="1">
          <mxGeometry x="180" y="170" width="120" height="30" as="geometry" />
        </mxCell>
        <mxCell id="rgjp0Nk6T2QiC0H_okUy-3" value="nom" style="rounded=0;whiteSpace=wrap;html=1;" vertex="1" parent="1">
          <mxGeometry x="60" y="280" width="120" height="30" as="geometry" />
        </mxCell>
        <mxCell id="rgjp0Nk6T2QiC0H_okUy-4" value="prénom" style="rounded=0;whiteSpace=wrap;html=1;" vertex="1" parent="1">
          <mxGeometry x="180" y="280" width="120" height="30" as="geometry" />
        </mxCell>
        <mxCell id="rgjp0Nk6T2QiC0H_okUy-5" value="Fraternité" style="text;html=1;strokeColor=none;fillColor=none;align=center;verticalAlign=middle;whiteSpace=wrap;rounded=0;" vertex="1" parent="1">
          <mxGeometry x="60" y="140" width="60" height="30" as="geometry" />
        </mxCell>
        <mxCell id="rgjp0Nk6T2QiC0H_okUy-7" value="Frère" style="text;html=1;strokeColor=none;fillColor=none;align=center;verticalAlign=middle;whiteSpace=wrap;rounded=0;" vertex="1" parent="1">
          <mxGeometry x="60" y="250" width="60" height="30" as="geometry" />
        </mxCell>
        <mxCell id="rgjp0Nk6T2QiC0H_okUy-8" value="&lt;u&gt;matricule&lt;/u&gt;" style="rounded=0;whiteSpace=wrap;html=1;" vertex="1" parent="1">
          <mxGeometry x="300" y="280" width="120" height="30" as="geometry" />
        </mxCell>
        <mxCell id="rgjp0Nk6T2QiC0H_okUy-11" style="edgeStyle=orthogonalEdgeStyle;rounded=0;orthogonalLoop=1;jettySize=auto;html=1;exitX=0.5;exitY=0;exitDx=0;exitDy=0;entryX=0.5;entryY=1;entryDx=0;entryDy=0;" edge="1" parent="1" source="rgjp0Nk6T2QiC0H_okUy-9" target="rgjp0Nk6T2QiC0H_okUy-1">
          <mxGeometry relative="1" as="geometry" />
        </mxCell>
        <mxCell id="rgjp0Nk6T2QiC0H_okUy-9" value="nom fraternité" style="rounded=0;whiteSpace=wrap;html=1;" vertex="1" parent="1">
          <mxGeometry x="540" y="280" width="120" height="30" as="geometry" />
        </mxCell>
        <mxCell id="rgjp0Nk6T2QiC0H_okUy-10" value="branche" style="rounded=0;whiteSpace=wrap;html=1;" vertex="1" parent="1">
          <mxGeometry x="660" y="280" width="120" height="30" as="geometry" />
        </mxCell>
        <mxCell id="rgjp0Nk6T2QiC0H_okUy-12" value="cycle d&#39;étude" style="rounded=0;whiteSpace=wrap;html=1;" vertex="1" parent="1">
          <mxGeometry x="420" y="280" width="120" height="30" as="geometry" />
        </mxCell>
        <mxCell id="rgjp0Nk6T2QiC0H_okUy-13" value="moyenne générale" style="rounded=0;whiteSpace=wrap;html=1;" vertex="1" parent="1">
          <mxGeometry x="780" y="280" width="120" height="30" as="geometry" />
        </mxCell>
        <mxCell id="rgjp0Nk6T2QiC0H_okUy-14" value="majeure assigné" style="rounded=0;whiteSpace=wrap;html=1;" vertex="1" parent="1">
          <mxGeometry x="900" y="280" width="120" height="30" as="geometry" />
        </mxCell>
        <mxCell id="rgjp0Nk6T2QiC0H_okUy-15" value="a payé" style="rounded=0;whiteSpace=wrap;html=1;" vertex="1" parent="1">
          <mxGeometry x="1020" y="280" width="120" height="30" as="geometry" />
        </mxCell>
        <mxCell id="rgjp0Nk6T2QiC0H_okUy-16" value="nom" style="rounded=0;whiteSpace=wrap;html=1;" vertex="1" parent="1">
          <mxGeometry x="60" y="390" width="120" height="30" as="geometry" />
        </mxCell>
        <mxCell id="rgjp0Nk6T2QiC0H_okUy-17" value="prénom" style="rounded=0;whiteSpace=wrap;html=1;" vertex="1" parent="1">
          <mxGeometry x="180" y="390" width="120" height="30" as="geometry" />
        </mxCell>
        <mxCell id="rgjp0Nk6T2QiC0H_okUy-18" value="conseil exécutif" style="text;html=1;strokeColor=none;fillColor=none;align=center;verticalAlign=middle;whiteSpace=wrap;rounded=0;" vertex="1" parent="1">
          <mxGeometry x="60" y="360" width="90" height="30" as="geometry" />
        </mxCell>
        <mxCell id="rgjp0Nk6T2QiC0H_okUy-45" style="edgeStyle=orthogonalEdgeStyle;rounded=0;orthogonalLoop=1;jettySize=auto;html=1;exitX=0.5;exitY=0;exitDx=0;exitDy=0;entryX=0.5;entryY=1;entryDx=0;entryDy=0;" edge="1" parent="1" source="rgjp0Nk6T2QiC0H_okUy-19" target="rgjp0Nk6T2QiC0H_okUy-8">
          <mxGeometry relative="1" as="geometry" />
        </mxCell>
        <mxCell id="rgjp0Nk6T2QiC0H_okUy-19" value="&lt;u&gt;matricule&lt;/u&gt;" style="rounded=0;whiteSpace=wrap;html=1;" vertex="1" parent="1">
          <mxGeometry x="300" y="390" width="120" height="30" as="geometry" />
        </mxCell>
        <mxCell id="rgjp0Nk6T2QiC0H_okUy-20" value="role" style="rounded=0;whiteSpace=wrap;html=1;" vertex="1" parent="1">
          <mxGeometry x="420" y="390" width="120" height="30" as="geometry" />
        </mxCell>
        <mxCell id="rgjp0Nk6T2QiC0H_okUy-23" style="edgeStyle=orthogonalEdgeStyle;rounded=0;orthogonalLoop=1;jettySize=auto;html=1;exitX=0.5;exitY=0;exitDx=0;exitDy=0;" edge="1" parent="1" source="rgjp0Nk6T2QiC0H_okUy-22">
          <mxGeometry relative="1" as="geometry">
            <mxPoint x="110" y="200" as="targetPoint" />
            <Array as="points">
              <mxPoint x="600" y="350" />
              <mxPoint x="30" y="350" />
              <mxPoint x="30" y="240" />
              <mxPoint x="110" y="240" />
              <mxPoint x="110" y="200" />
            </Array>
          </mxGeometry>
        </mxCell>
        <mxCell id="rgjp0Nk6T2QiC0H_okUy-22" value="nom fraternité" style="rounded=0;whiteSpace=wrap;html=1;" vertex="1" parent="1">
          <mxGeometry x="540" y="390" width="120" height="30" as="geometry" />
        </mxCell>
        <mxCell id="rgjp0Nk6T2QiC0H_okUy-24" value="&lt;u&gt;nom&lt;/u&gt;" style="rounded=0;whiteSpace=wrap;html=1;" vertex="1" parent="1">
          <mxGeometry x="60" y="480" width="120" height="30" as="geometry" />
        </mxCell>
        <mxCell id="rgjp0Nk6T2QiC0H_okUy-25" value="type" style="rounded=0;whiteSpace=wrap;html=1;" vertex="1" parent="1">
          <mxGeometry x="180" y="480" width="120" height="30" as="geometry" />
        </mxCell>
        <mxCell id="rgjp0Nk6T2QiC0H_okUy-26" value="lieu" style="rounded=0;whiteSpace=wrap;html=1;" vertex="1" parent="1">
          <mxGeometry x="300" y="480" width="120" height="30" as="geometry" />
        </mxCell>
        <mxCell id="rgjp0Nk6T2QiC0H_okUy-27" value="date" style="rounded=0;whiteSpace=wrap;html=1;" vertex="1" parent="1">
          <mxGeometry x="420" y="480" width="120" height="30" as="geometry" />
        </mxCell>
        <mxCell id="rgjp0Nk6T2QiC0H_okUy-37" style="edgeStyle=orthogonalEdgeStyle;rounded=0;orthogonalLoop=1;jettySize=auto;html=1;exitX=0.5;exitY=0;exitDx=0;exitDy=0;" edge="1" parent="1" source="rgjp0Nk6T2QiC0H_okUy-28">
          <mxGeometry relative="1" as="geometry">
            <mxPoint x="99" y="200" as="targetPoint" />
            <Array as="points">
              <mxPoint x="600" y="450" />
              <mxPoint x="20" y="450" />
              <mxPoint x="20" y="230" />
              <mxPoint x="99" y="230" />
            </Array>
          </mxGeometry>
        </mxCell>
        <mxCell id="rgjp0Nk6T2QiC0H_okUy-28" value="nom fraternité" style="rounded=0;whiteSpace=wrap;html=1;" vertex="1" parent="1">
          <mxGeometry x="540" y="480" width="120" height="30" as="geometry" />
        </mxCell>
        <mxCell id="rgjp0Nk6T2QiC0H_okUy-29" value="évènement" style="text;html=1;strokeColor=none;fillColor=none;align=center;verticalAlign=middle;whiteSpace=wrap;rounded=0;" vertex="1" parent="1">
          <mxGeometry x="60" y="450" width="60" height="30" as="geometry" />
        </mxCell>
        <mxCell id="rgjp0Nk6T2QiC0H_okUy-30" value="&lt;u&gt;nom&lt;/u&gt;" style="rounded=0;whiteSpace=wrap;html=1;" vertex="1" parent="1">
          <mxGeometry x="60" y="590" width="120" height="30" as="geometry" />
        </mxCell>
        <mxCell id="rgjp0Nk6T2QiC0H_okUy-36" style="edgeStyle=orthogonalEdgeStyle;rounded=0;orthogonalLoop=1;jettySize=auto;html=1;exitX=0.5;exitY=0;exitDx=0;exitDy=0;entryX=0.5;entryY=1;entryDx=0;entryDy=0;" edge="1" parent="1" source="rgjp0Nk6T2QiC0H_okUy-31" target="rgjp0Nk6T2QiC0H_okUy-24">
          <mxGeometry relative="1" as="geometry" />
        </mxCell>
        <mxCell id="rgjp0Nk6T2QiC0H_okUy-31" value="évènement sponsorisé" style="rounded=0;whiteSpace=wrap;html=1;" vertex="1" parent="1">
          <mxGeometry x="180" y="590" width="120" height="30" as="geometry" />
        </mxCell>
        <mxCell id="rgjp0Nk6T2QiC0H_okUy-32" value="argent versé" style="rounded=0;whiteSpace=wrap;html=1;" vertex="1" parent="1">
          <mxGeometry x="300" y="590" width="120" height="30" as="geometry" />
        </mxCell>
        <mxCell id="rgjp0Nk6T2QiC0H_okUy-35" value="sponsors" style="text;html=1;strokeColor=none;fillColor=none;align=center;verticalAlign=middle;whiteSpace=wrap;rounded=0;" vertex="1" parent="1">
          <mxGeometry x="60" y="560" width="60" height="30" as="geometry" />
        </mxCell>
        <mxCell id="rgjp0Nk6T2QiC0H_okUy-44" style="edgeStyle=orthogonalEdgeStyle;rounded=0;orthogonalLoop=1;jettySize=auto;html=1;exitX=0.5;exitY=0;exitDx=0;exitDy=0;" edge="1" parent="1" source="rgjp0Nk6T2QiC0H_okUy-39">
          <mxGeometry relative="1" as="geometry">
            <mxPoint x="378" y="310" as="targetPoint" />
            <Array as="points">
              <mxPoint x="720" y="340" />
              <mxPoint x="378" y="340" />
            </Array>
          </mxGeometry>
        </mxCell>
        <mxCell id="rgjp0Nk6T2QiC0H_okUy-39" value="matricule participant" style="rounded=0;whiteSpace=wrap;html=1;" vertex="1" parent="1">
          <mxGeometry x="660" y="480" width="120" height="30" as="geometry" />
        </mxCell>
      </root>
    </mxGraphModel>
  </diagram>
</mxfile>
